<svg width="29" height="29" viewBox="0 0 29 29" fill="none" xmlns="http://www.w3.org/2000/svg">
<g clip-path="url(#clip0_86_423)">
<path d="M13.2917 4.83333H4.83332C4.19238 4.83333 3.57769 5.08795 3.12448 5.54116C2.67127 5.99437 2.41666 6.60906 2.41666 7.25V24.1667C2.41666 24.8076 2.67127 25.4223 3.12448 25.8755C3.57769 26.3287 4.19238 26.5833 4.83332 26.5833H21.75C22.3909 26.5833 23.0056 26.3287 23.4588 25.8755C23.912 25.4223 24.1667 24.8076 24.1667 24.1667V15.7083M22.3542 3.02084C22.8349 2.54013 23.4868 2.27007 24.1667 2.27007C24.8465 2.27007 25.4985 2.54013 25.9792 3.02084C26.4599 3.50154 26.7299 4.15352 26.7299 4.83333C26.7299 5.51315 26.4599 6.16513 25.9792 6.64584L14.5 18.125L9.66666 19.3333L10.875 14.5L22.3542 3.02084Z" stroke="#D9D9D9" stroke-width="4" stroke-linecap="round" stroke-linejoin="round"/>
</g>
<defs>
<clipPath id="clip0_86_423">
<rect width="29" height="29" fill="white"/>
</clipPath>
</defs>
</svg>
