<svg width="29" height="29" viewBox="0 0 29 29" fill="none" xmlns="http://www.w3.org/2000/svg">
<g clip-path="url(#clip0_86_440)">
<path d="M21.6775 21.6775C19.612 23.252 17.0968 24.1242 14.5 24.1667C6.04168 24.1667 1.20834 14.5 1.20834 14.5C2.71138 11.699 4.79605 9.25173 7.32251 7.3225M11.9625 5.12333C12.7942 4.92864 13.6458 4.83132 14.5 4.83333C22.9583 4.83333 27.7917 14.5 27.7917 14.5C27.0582 15.8722 26.1835 17.1641 25.1817 18.3546M17.0617 17.0617C16.7298 17.4178 16.3296 17.7035 15.8849 17.9016C15.4403 18.0997 14.9603 18.2063 14.4735 18.2149C13.9868 18.2234 13.5033 18.1339 13.052 17.9516C12.6006 17.7693 12.1905 17.4979 11.8463 17.1537C11.5021 16.8095 11.2307 16.3994 11.0484 15.9481C10.8661 15.4967 10.7766 15.0132 10.7851 14.5265C10.7937 14.0397 10.9003 13.5597 11.0984 13.1151C11.2965 12.6704 11.5822 12.2702 11.9383 11.9383M1.20834 1.20833L27.7917 27.7917" stroke="#D9D9D9" stroke-width="4" stroke-linecap="round" stroke-linejoin="round"/>
</g>
<defs>
<clipPath id="clip0_86_440">
<rect width="29" height="29" fill="white"/>
</clipPath>
</defs>
</svg>
