<svg width="52" height="50" viewBox="0 0 52 50" fill="none" xmlns="http://www.w3.org/2000/svg">
<path d="M51.7304 49.0068C51.5549 49.3109 51.3023 49.5634 50.9982 49.739C50.6941 49.9145 50.3491 50.0069 49.998 50.0068H1.99795C1.64705 50.0064 1.30242 49.9138 0.998668 49.7381C0.694915 49.5624 0.44273 49.3099 0.267437 49.0059C0.0921426 48.7019 -9.00206e-05 48.3572 6.59294e-08 48.0063C9.01524e-05 47.6554 0.0924996 47.3107 0.26795 47.0068C4.07545 40.4243 9.94295 35.7043 16.7904 33.4668C13.4034 31.4504 10.7718 28.378 9.29992 24.7213C7.82802 21.0646 7.59716 17.0258 8.6428 13.2252C9.68844 9.42458 11.9528 6.07228 15.088 3.68311C18.2233 1.29394 22.0561 0 25.9979 0C29.9398 0 33.7726 1.29394 36.9079 3.68311C40.0432 6.07228 42.3075 9.42458 43.3531 13.2252C44.3987 17.0258 44.1679 21.0646 42.696 24.7213C41.2241 28.378 38.5925 31.4504 35.2055 33.4668C42.053 35.7043 47.9205 40.4243 51.728 47.0068C51.9039 47.3106 51.9967 47.6554 51.9972 48.0065C51.9976 48.3575 51.9056 48.7025 51.7304 49.0068Z" fill="black"/>
</svg>
